<svg xmlns="http://www.w3.org/2000/svg" width="45.609" height="43" viewBox="0 0 45.609 43"><defs><style>.a{fill:#0e76a8;}.b{fill:#fff;}</style></defs><path class="a" d="M22.8,0c12.6,0,22.8,9.627,22.8,21.5S35.4,43,22.8,43,0,33.373,0,21.5,10.209,0,22.8,0Z"/><path class="b" d="M81.954,91.455h3.99v-13.3h-3.99ZM97.5,77.694a5.989,5.989,0,0,0-4.9,2.268V78.111h-4V91.455h4V84.239a3.168,3.168,0,0,1,3.147-3.013c1.75,0,2.182,1.488,2.182,2.975v7.252h3.99V83.9C101.921,78.661,99.438,77.694,97.5,77.694Zm-13.569-.868a2,2,0,1,0-2-2A2,2,0,0,0,83.931,76.826Z" transform="translate(-68.363 -62.006)"/></svg>